<svg width="1920" height="186" viewBox="0 0 1920 186" fill="none" xmlns="http://www.w3.org/2000/svg">
<path d="M552.578 103.828L548.025 111.327L546.76 110.577L546.005 110.129V182.765H527.288V148.667H516.43V182.765H487.854V148.667H476.995V182.765H458.263V110.129L457.508 110.577L456.242 111.327L451.689 103.828L482.467 85.5889L501.869 97.5693L502.132 97.7314L502.395 97.5693L521.805 85.584L552.578 103.828ZM476.995 130.192H487.873V119.431H476.995V130.192ZM516.43 130.192H527.308V119.431H516.43V130.192Z" fill="#202131" stroke="#202131"/>
<g clip-path="url(#clip0_80_81)">
<path d="M662.604 77.9167L650.916 89.6042M662.604 77.9167L674.284 89.6042L662.604 101.292M662.604 77.9167V27.2708M650.916 89.6042L662.604 101.292M650.916 89.6042H604.166M662.604 101.292V151.938M721.041 89.6042H674.291M709.354 128.563L668.868 95.0272M657.087 83.4332L621.261 47.6071M704.157 48.0512L668.448 83.7604M656.417 95.1051L617.646 128.563M632.037 151.338L600.271 183.104M693.171 151.338L724.937 183.104M576.896 183.104H748.312M651.462 20.57L617.63 35.0625M707.577 35.0625L673.746 20.57M729.947 81.8125L718.813 50.6458M718.813 128.563L729.955 97.3958M675.133 158.054L707.577 144.146M617.63 144.146L650.075 158.054M595.26 97.3958L606.395 128.563M606.395 50.6458L595.253 81.8125M600.271 97.3958H584.687L576.896 81.8125H608.062L600.271 97.3958ZM724.937 97.3958H740.521L748.312 81.8125H717.146L724.937 97.3958ZM654.812 27.2708H670.396L678.187 11.6875H647.021L654.812 27.2708ZM654.812 167.521H670.396L678.187 151.938H647.021L654.812 167.521ZM604.166 50.6458H619.75L627.541 35.0625H596.375L604.166 50.6458ZM604.166 144.146H619.75L627.541 128.563H596.375L604.166 144.146ZM721.041 144.146H705.458L697.666 128.563H728.833L721.041 144.146ZM705.458 50.6458H721.041L728.833 35.0625H697.666L705.458 50.6458Z" stroke="#202131" stroke-width="8" stroke-miterlimit="10" stroke-linecap="round" stroke-linejoin="round"/>
</g>
<mask id="path-3-inside-1_80_81" fill="white">
<path d="M364.778 148H352.556V136H364.778M364.778 172H352.556V160H364.778M328.111 100H315.889V88H328.111M328.111 124H315.889V112H328.111M328.111 148H315.889V136H328.111M328.111 172H315.889V160H328.111M291.444 124H279.222V112H291.444M291.444 148H279.222V136H291.444M291.444 172H279.222V160H291.444M340.333 124V88L322 70L303.667 88V100H267V184H377V124H340.333Z"/>
</mask>
<path d="M364.778 148H352.556V136H364.778M364.778 172H352.556V160H364.778M328.111 100H315.889V88H328.111M328.111 124H315.889V112H328.111M328.111 148H315.889V136H328.111M328.111 172H315.889V160H328.111M291.444 124H279.222V112H291.444M291.444 148H279.222V136H291.444M291.444 172H279.222V160H291.444M340.333 124V88L322 70L303.667 88V100H267V184H377V124H340.333Z" fill="#202131"/>
<path d="M352.556 148H351.556V149H352.556V148ZM352.556 136V135H351.556V136H352.556ZM352.556 172H351.556V173H352.556V172ZM352.556 160V159H351.556V160H352.556ZM315.889 100H314.889V101H315.889V100ZM315.889 88V87H314.889V88H315.889ZM315.889 124H314.889V125H315.889V124ZM315.889 112V111H314.889V112H315.889ZM315.889 148H314.889V149H315.889V148ZM315.889 136V135H314.889V136H315.889ZM315.889 172H314.889V173H315.889V172ZM315.889 160V159H314.889V160H315.889ZM279.222 124H278.222V125H279.222V124ZM279.222 112V111H278.222V112H279.222ZM279.222 148H278.222V149H279.222V148ZM279.222 136V135H278.222V136H279.222ZM279.222 172H278.222V173H279.222V172ZM279.222 160V159H278.222V160H279.222ZM340.333 124H339.333V125H340.333V124ZM340.333 88H341.333V87.5804L341.034 87.2864L340.333 88ZM322 70L322.701 69.2864L322 68.5986L321.299 69.2864L322 70ZM303.667 88L302.966 87.2864L302.667 87.5804V88H303.667ZM303.667 100V101H304.667V100H303.667ZM267 100V99H266V100H267ZM267 184H266V185H267V184ZM377 184V185H378V184H377ZM377 124H378V123H377V124ZM364.778 148V147H352.556V148V149H364.778V148ZM352.556 148H353.556V136H352.556H351.556V148H352.556ZM352.556 136V137H364.778V136V135H352.556V136ZM364.778 172V171H352.556V172V173H364.778V172ZM352.556 172H353.556V160H352.556H351.556V172H352.556ZM352.556 160V161H364.778V160V159H352.556V160ZM328.111 100V99H315.889V100V101H328.111V100ZM315.889 100H316.889V88H315.889H314.889V100H315.889ZM315.889 88V89H328.111V88V87H315.889V88ZM328.111 124V123H315.889V124V125H328.111V124ZM315.889 124H316.889V112H315.889H314.889V124H315.889ZM315.889 112V113H328.111V112V111H315.889V112ZM328.111 148V147H315.889V148V149H328.111V148ZM315.889 148H316.889V136H315.889H314.889V148H315.889ZM315.889 136V137H328.111V136V135H315.889V136ZM328.111 172V171H315.889V172V173H328.111V172ZM315.889 172H316.889V160H315.889H314.889V172H315.889ZM315.889 160V161H328.111V160V159H315.889V160ZM291.444 124V123H279.222V124V125H291.444V124ZM279.222 124H280.222V112H279.222H278.222V124H279.222ZM279.222 112V113H291.444V112V111H279.222V112ZM291.444 148V147H279.222V148V149H291.444V148ZM279.222 148H280.222V136H279.222H278.222V148H279.222ZM279.222 136V137H291.444V136V135H279.222V136ZM291.444 172V171H279.222V172V173H291.444V172ZM279.222 172H280.222V160H279.222H278.222V172H279.222ZM279.222 160V161H291.444V160V159H279.222V160ZM340.333 124H341.333V88H340.333H339.333V124H340.333ZM340.333 88L341.034 87.2864L322.701 69.2864L322 70L321.299 70.7136L339.633 88.7136L340.333 88ZM322 70L321.299 69.2864L302.966 87.2864L303.667 88L304.367 88.7136L322.701 70.7136L322 70ZM303.667 88H302.667V100H303.667H304.667V88H303.667ZM303.667 100V99H267V100V101H303.667V100ZM267 100H266V184H267H268V100H267ZM267 184V185H377V184V183H267V184ZM377 184H378V124H377H376V184H377ZM377 124V123H340.333V124V125H377V124Z" fill="#202131" mask="url(#path-3-inside-1_80_81)"/>
<path d="M122.339 144.085C122.339 142.405 120.983 141.049 119.303 141.049C117.623 141.049 116.267 142.405 116.267 144.085C116.267 145.765 117.623 147.122 119.303 147.122C120.983 147.122 122.339 145.765 122.339 144.085ZM98.0485 153.194V160.279L100.133 160.988C100.304 162.193 100.903 163.297 101.822 164.096C102.74 164.896 103.916 165.337 105.133 165.34H105.295C105.579 166.716 106.247 167.951 107.158 168.943V181.534H112.218V171.412H112.724C113.149 171.412 113.574 171.352 113.979 171.291L122.967 169.793L125.234 173.862L123.716 181.534H128.857L130.436 173.943C130.497 173.335 130.436 172.728 130.112 172.202L128.048 168.538C129.053 167.979 129.895 167.168 130.491 166.185C131.088 165.202 131.417 164.08 131.448 162.931C131.529 163.234 131.57 163.68 131.509 164.328C131.448 165.218 131.226 166.534 131.367 167.991C131.448 169.449 132.116 170.947 132.967 171.939C133.837 172.931 134.788 173.619 135.801 174.145L137.217 172.728C136.833 171.777 136.448 170.927 136.367 170.137C136.246 169.388 136.388 168.781 136.61 168.234L137.683 165.947C138.108 164.915 138.634 163.417 138.533 161.656C138.473 159.935 137.521 157.688 135.72 156.453C133.898 155.219 131.934 155.036 130.335 155.38C129.323 155.583 128.291 156.069 127.4 156.757C126.651 156.413 125.781 156.231 124.87 156.231H124.364V153.417C124.364 151.393 122.987 149.53 121.003 149.207C120.422 149.106 119.826 149.134 119.257 149.288C118.688 149.442 118.159 149.719 117.708 150.099C117.257 150.479 116.894 150.953 116.645 151.487C116.396 152.022 116.267 152.605 116.267 153.194V156.231H113.23V155.219C113.23 150.745 109.607 147.122 105.133 147.122H98.0485L99.85 149.834C98.7569 150.563 98.0485 151.798 98.0485 153.194ZM102.097 159.672L104.202 156.312C104.465 155.887 105.133 156.069 105.133 156.575V163.315C103.453 163.315 102.097 161.959 102.097 160.279V159.672Z" fill="#202131"/>
<path d="M29.5957 160.971L29.834 161.127L30.0898 161.002L39 156.649L47.9102 161.002L48.166 161.126L48.4033 160.972L64.4365 150.509L82.1855 185.5H-4.19238L13.3457 150.296L29.5957 160.971ZM64.5869 99.5L60.5537 107.475L60.4395 107.7L60.5537 107.926L64.5869 115.9H42.9004V129.95H49.0098C50.6054 129.95 52.0338 130.36 53.3076 131.176C54.5135 131.948 55.489 132.961 56.2363 134.222L56.3828 134.478L60.0215 141.675L47.4355 149.971L39.2236 145.859L39 145.747L38.7764 145.859L30.5625 149.971L17.7529 141.562L21.1885 134.564L21.1904 134.561C21.8822 133.124 22.899 132.002 24.2471 131.183C25.5998 130.36 27.0675 129.95 28.6602 129.95H35.0996V99.5H64.5869Z" fill="#202131" stroke="#202131"/>
<path d="M193.907 106.741C201.013 102.776 207.445 101.986 213.034 104.389C217.764 106.421 220.887 110.371 222.84 113.869L222.865 113.915L222.894 113.871C225.232 110.214 228.148 107.74 231.368 106.69C235.715 105.271 240.393 106.345 245.285 109.894L245.76 110.245C246.367 110.735 246.759 111.442 246.854 112.217C246.95 112.992 246.741 113.774 246.271 114.397C245.8 115.021 245.105 115.437 244.334 115.557C243.563 115.676 242.775 115.491 242.138 115.04C238.754 112.483 235.761 111.591 233.254 112.404C231.862 112.853 230.637 113.806 229.594 114.96C228.55 116.114 227.687 117.471 227.021 118.728L227.001 118.765L227.042 118.772C229.777 119.324 232.409 120.301 234.842 121.667C240.377 124.833 246.969 131.546 246.969 145.544C246.969 146.341 246.652 147.106 246.089 147.67C245.526 148.234 244.761 148.551 243.965 148.551C243.168 148.551 242.403 148.234 241.84 147.67C241.277 147.106 240.96 146.341 240.96 145.544C240.96 136.627 237.898 130.333 231.837 126.907C231.132 126.507 230.402 126.151 229.652 125.842L229.575 125.811L229.612 125.885C231.521 129.768 232.19 134.145 231.529 138.422C231.053 141.586 229.909 144.613 228.173 147.3C227.712 147.946 227.014 148.384 226.232 148.518C225.451 148.651 224.648 148.47 223.999 148.014C223.35 147.557 222.908 146.863 222.769 146.081C222.63 145.299 222.805 144.494 223.257 143.842V143.841C223.545 143.421 229.464 134.56 222.019 125.054L222.002 125.033L221.979 125.046C212.046 130.646 206.426 138.686 205.301 148.979L205.206 149.981C204.87 154.648 205.363 159.337 206.66 163.832L206.667 163.854L206.689 163.854C230.453 164.542 245.196 176.129 245.831 176.632C246.315 177.018 246.668 177.545 246.842 178.141C247.015 178.736 247.001 179.371 246.8 179.958C246.594 180.546 246.21 181.055 245.702 181.415C245.194 181.775 244.587 181.969 243.965 181.969H165.038C164.415 181.969 163.807 181.776 163.299 181.416C162.791 181.056 162.407 180.545 162.201 179.957C161.995 179.369 161.976 178.731 162.147 178.132C162.319 177.533 162.674 177.001 163.16 176.612C163.776 176.12 177.772 165.126 200.438 163.915L200.477 163.913L200.468 163.876C199.289 159.175 198.868 154.316 199.22 149.481C199.876 141.243 203.356 130.269 215.504 121.978L215.562 121.938L215.494 121.921C213.861 121.524 212.193 121.292 210.515 121.228L209.795 121.21H209.16C205.549 121.328 202.606 122.442 200.302 124.585C197.998 126.727 196.336 129.895 195.28 134.116C195.117 134.768 194.741 135.346 194.212 135.759C193.682 136.172 193.03 136.395 192.358 136.394C192.169 136.396 191.979 136.38 191.793 136.345L191.607 136.304C190.835 136.11 190.17 135.617 189.76 134.934C189.35 134.25 189.229 133.431 189.422 132.657C191.175 125.647 194.313 121.342 197.88 118.761C201.448 116.18 205.45 115.321 208.935 115.211L208.934 115.21C211.702 115.149 214.467 115.463 217.152 116.141L217.226 116.159L217.187 116.094C215.781 113.762 213.738 111.332 210.917 110.032L210.642 109.91C206.834 108.294 202.206 109.001 196.836 112.004C196.491 112.196 196.111 112.32 195.719 112.365C195.326 112.411 194.928 112.378 194.548 112.27C194.168 112.161 193.813 111.98 193.503 111.734C193.193 111.489 192.935 111.184 192.742 110.839C192.55 110.493 192.427 110.113 192.382 109.721C192.336 109.328 192.368 108.929 192.477 108.549C192.585 108.168 192.767 107.813 193.013 107.503C193.258 107.193 193.562 106.934 193.907 106.741ZM171.608 137.264C173.544 136.461 175.675 136.251 177.729 136.66C179.784 137.069 181.672 138.079 183.153 139.562C184.635 141.044 185.644 142.934 186.053 144.991C186.461 147.048 186.252 149.18 185.45 151.117C184.648 153.055 183.29 154.71 181.548 155.875C179.806 157.04 177.758 157.662 175.663 157.662C172.854 157.662 170.159 156.545 168.172 154.557C166.185 152.568 165.069 149.871 165.069 147.06C165.069 144.963 165.691 142.913 166.854 141.169C168.018 139.425 169.673 138.066 171.608 137.264Z" fill="#202131" stroke="#202131" stroke-width="0.0625"/>
<g clip-path="url(#clip1_80_81)">
<path d="M900.028 77.5566H862.278V182.418H908.417V85.9455C908.417 83.7207 907.533 81.5869 905.96 80.0137C904.387 78.4405 902.253 77.5566 900.028 77.5566ZM879.056 148.862H870.667V140.473H879.056V148.862ZM879.056 127.89H870.667V119.501H879.056V127.89ZM879.056 106.918H870.667V98.5289H879.056V106.918ZM895.834 148.862H887.445V140.473H895.834V148.862ZM895.834 127.89H887.445V119.501H895.834V127.89ZM895.834 106.918H887.445V98.5289H895.834V106.918Z" fill="#202131"/>
<path d="M844.996 56.583H795.67C793.311 56.583 791.049 57.5199 789.382 59.1875C787.714 60.8551 786.777 63.1169 786.777 65.4752V182.416H807.75V169.833H832.916V182.416H853.888V65.4752C853.888 63.1169 852.952 60.8551 851.284 59.1875C849.616 57.5199 847.355 56.583 844.996 56.583ZM807.75 148.861H799.361V140.472H807.75V148.861ZM807.75 127.889H799.361V119.5H807.75V127.889ZM807.75 106.916H799.361V98.5275H807.75V106.916ZM807.75 85.9441H799.361V77.5552H807.75V85.9441ZM824.527 148.861H816.138V140.472H824.527V148.861ZM824.527 127.889H816.138V119.5H824.527V127.889ZM824.527 106.916H816.138V98.5275H824.527V106.916ZM824.527 85.9441H816.138V77.5552H824.527V85.9441ZM841.305 148.861H832.916V140.472H841.305V148.861ZM841.305 127.889H832.916V119.5H841.305V127.889ZM841.305 106.916H832.916V98.5275H841.305V106.916ZM841.305 85.9441H832.916V77.5552H841.305V85.9441Z" fill="#202131"/>
</g>
<path d="M950.898 140.7C950.898 139.453 951.399 138.258 952.292 137.377C953.184 136.495 954.395 136 955.657 136C956.919 136 958.13 136.495 959.022 137.377C959.915 138.258 960.416 139.453 960.416 140.7C960.416 143.308 958.299 145.4 955.657 145.4C954.395 145.4 953.184 144.905 952.292 144.023C951.399 143.142 950.898 141.947 950.898 140.7ZM981 181.825L966.365 156.798C964.628 156.798 963.343 156.327 961.939 155.411C960.512 154.494 959.465 153.343 958.775 151.98L957.014 148.29C956.585 147.468 956.014 146.857 955.253 146.434C954.563 146.035 953.825 145.823 953.063 145.823C952.302 145.823 951.588 146.011 950.898 146.34L939 152.99V163.33H943.426V155.552L946.734 153.719L945.925 157.408C945.71 158.63 945.592 159.852 945.592 161.098V172.754L939.904 180.345L943.426 183L950.065 174.188L950.47 166.55L954.467 172.049V183H958.87V168.759L954.467 162.625V161.098C954.467 160.064 954.467 159.053 954.729 158.066L955.562 155.246C956.466 156.539 957.585 157.62 958.87 158.63C960.892 160.228 962.796 160.886 966.008 160.863L978.93 183L981 181.825Z" fill="#202131"/>
<path d="M994.96 145.73C994.96 147.458 996.327 148.502 998.019 148.502C999.063 148.502 999.891 147.998 1000.61 147.278L1035.74 115.28C1036.14 114.884 1036.57 114.739 1037.04 114.739C1037.47 114.739 1037.86 114.884 1038.29 115.28L1073.39 147.278C1074.14 147.998 1074.97 148.502 1075.98 148.502C1077.67 148.502 1079.04 147.458 1079.04 145.73C1079.04 144.651 1078.64 143.967 1077.96 143.354L1065.51 132.018V110.745C1065.51 109.162 1064.5 108.154 1062.92 108.154H1058.2C1056.65 108.154 1055.57 109.162 1055.57 110.745V122.983L1041.32 109.953C1040.06 108.766 1038.51 108.191 1037 108.191C1035.49 108.191 1033.98 108.767 1032.68 109.954L996.04 143.354C995.391 143.967 994.96 144.651 994.96 145.73ZM1005.25 175.928C1005.25 180.932 1008.28 183.848 1013.35 183.848H1027.93V158.255C1027.93 156.6 1029.05 155.522 1030.7 155.522H1043.41C1045.06 155.522 1046.14 156.6 1046.14 158.255V183.848H1060.68C1065.76 183.848 1068.75 180.932 1068.75 175.928V149.582L1038.19 122.046C1037.79 121.687 1037.36 121.507 1036.93 121.507C1036.53 121.507 1036.14 121.687 1035.7 122.083L1005.25 149.761V175.928Z" fill="#202131"/>
<path d="M1200.62 132.167H1126.37C1121.84 132.167 1118.12 135.917 1118.12 140.5V173.834H1122.25C1122.25 176.044 1123.12 178.163 1124.67 179.726C1126.21 181.289 1128.31 182.167 1130.5 182.167C1132.69 182.167 1134.79 181.289 1136.33 179.726C1137.88 178.163 1138.75 176.044 1138.75 173.834H1188.25C1188.25 176.044 1189.12 178.163 1190.67 179.726C1192.21 181.289 1194.31 182.167 1196.5 182.167C1198.69 182.167 1200.79 181.289 1202.33 179.726C1203.88 178.163 1204.75 176.044 1204.75 173.834H1208.87V140.5C1208.87 138.29 1208.01 136.171 1206.46 134.608C1204.91 133.045 1202.81 132.167 1200.62 132.167ZM1142.87 153H1126.37V140.5H1142.87V153ZM1175.87 153H1151.12V140.5H1175.87V153ZM1200.62 153H1184.12V140.5H1200.62V153Z" fill="#202131"/>
<path fill-rule="evenodd" clip-rule="evenodd" d="M1362.02 52.195L1385.93 56.6509C1389.1 57.2434 1391.92 59.1411 1393.76 61.9268C1395.61 64.7125 1396.33 68.1581 1395.77 71.5061L1394.72 77.8149C1396.3 78.1119 1397.71 79.0615 1398.63 80.455C1399.55 81.8485 1399.91 83.5717 1399.63 85.2457L1395.42 110.507C1396.22 110.633 1396.99 110.928 1397.68 111.374C1398.38 111.82 1398.98 112.408 1399.45 113.102C1399.92 113.797 1400.26 114.584 1400.44 115.419C1400.62 116.253 1400.64 117.117 1400.5 117.96C1400.36 118.803 1400.06 119.607 1399.62 120.326C1399.18 121.045 1398.61 121.664 1397.94 122.145C1397.27 122.627 1396.52 122.963 1395.72 123.132C1394.93 123.301 1394.11 123.301 1393.32 123.131L1390.16 142.07C1390.95 142.217 1391.7 142.526 1392.37 142.98C1393.04 143.433 1393.62 144.022 1394.08 144.713C1394.53 145.404 1394.86 146.182 1395.03 147.005C1395.2 147.828 1395.22 148.678 1395.08 149.507C1394.94 150.336 1394.64 151.129 1394.21 151.838C1393.79 152.548 1393.23 153.162 1392.57 153.644C1391.92 154.126 1391.18 154.468 1390.4 154.649C1389.63 154.83 1388.82 154.848 1388.04 154.7L1383.35 182.673C1383.1 184.155 1382.36 185.497 1381.27 186.464C1380.18 187.431 1378.8 187.962 1377.37 187.963H1328.07C1327.18 187.963 1326.31 187.758 1325.5 187.362C1324.7 186.966 1323.99 186.39 1323.42 185.672C1322.85 184.955 1322.44 184.114 1322.21 183.209C1321.98 182.305 1321.94 181.358 1322.09 180.436L1328.28 143.57C1326.69 143.274 1325.28 142.325 1324.36 140.932C1323.44 139.538 1323.07 137.814 1323.35 136.139C1323.63 134.464 1324.53 132.976 1325.85 132.001C1327.17 131.025 1328.8 130.644 1330.39 130.94L1333.54 111.994C1331.96 111.698 1330.55 110.749 1329.63 109.356C1328.7 107.962 1328.34 106.238 1328.62 104.563C1328.9 102.888 1329.8 101.4 1331.12 100.424C1332.44 99.4493 1334.07 99.0677 1335.66 99.3636L1339.87 74.1091C1340.16 72.4365 1341.05 70.9502 1342.37 69.9765C1343.69 69.0028 1345.32 68.6213 1346.9 68.9159L1347.96 62.5943C1348.52 59.2454 1350.31 56.2684 1352.95 54.3182C1355.59 52.368 1358.85 51.6043 1362.02 52.195ZM1349.71 160.547L1347.27 175.14H1359.59L1361.66 162.766C1361.8 161.936 1361.78 161.087 1361.61 160.264C1361.44 159.442 1361.11 158.664 1360.65 157.974C1360.2 157.285 1359.62 156.697 1358.94 156.245C1358.27 155.792 1357.52 155.484 1356.74 155.338C1355.95 155.192 1355.15 155.211 1354.37 155.393C1353.59 155.576 1352.85 155.918 1352.2 156.401C1351.55 156.884 1350.99 157.499 1350.56 158.209C1350.14 158.919 1349.84 159.712 1349.71 160.541L1349.71 160.547ZM1362.38 123.874C1360.91 123.603 1359.41 123.908 1358.14 124.733C1356.87 125.558 1355.94 126.845 1355.51 128.349L1355.35 129.08L1354.29 135.389L1366.25 137.62L1367.31 131.305C1367.44 130.475 1367.43 129.625 1367.25 128.802C1367.08 127.979 1366.76 127.201 1366.3 126.511C1365.84 125.82 1365.26 125.232 1364.59 124.78C1363.91 124.328 1363.16 124.02 1362.38 123.874ZM1367.65 92.3047C1366.19 92.0311 1364.68 92.3359 1363.41 93.1609C1362.14 93.986 1361.21 95.2739 1360.78 96.7798L1360.62 97.5107L1359.56 103.82L1371.52 106.051L1372.57 99.7355C1372.71 98.9061 1372.69 98.056 1372.52 97.2336C1372.35 96.4113 1372.03 95.6329 1371.57 94.9428C1371.11 94.2527 1370.53 93.6646 1369.86 93.2119C1369.19 92.7593 1368.44 92.451 1367.65 92.3047ZM1359.91 64.8255L1358.86 71.1407L1382.77 75.5902L1383.82 69.275L1359.91 64.8255Z" fill="#202131"/>
<path d="M1597 184V108H1580.1V70H1554.75V108H1529.4V86.8889L1512.5 70L1495.6 86.8889V108H1470.25V70H1444.9V108H1428V184H1487.15V167.111C1487.15 160.392 1489.82 153.949 1494.57 149.198C1499.33 144.447 1505.78 141.778 1512.5 141.778C1519.22 141.778 1525.67 144.447 1530.43 149.198C1535.18 153.949 1537.85 160.392 1537.85 167.111V184H1597Z" fill="#202131"/>
<path d="M1665.8 173.443C1666.16 173.805 1666.33 174.192 1666.33 174.627C1666.33 174.917 1666.19 175.328 1665.9 175.69C1664.98 176.971 1663.82 177.962 1662.39 178.687C1660.97 179.388 1659.45 179.75 1657.8 179.75H1636.2C1634.48 179.75 1632.91 179.388 1631.51 178.687C1630.08 177.962 1628.88 176.971 1627.98 175.69C1627.78 175.372 1627.67 175.004 1627.67 174.627C1627.67 174.192 1627.84 173.805 1628.15 173.443C1628.46 173.08 1628.88 172.911 1629.38 172.911C1629.94 172.911 1630.4 173.153 1630.76 173.709C1631.75 174.917 1633.03 175.787 1634.6 176.222L1641.73 167.57L1638.64 158.169C1638.2 156.792 1638.4 155.584 1639.17 154.375L1644.58 145.579H1639.27L1634.92 152.611L1631.07 150.17L1636.73 141.084H1649.71C1650.72 141.084 1651.52 141.374 1652.17 141.929C1652.8 142.509 1653.24 143.017 1653.45 143.428L1654.61 146.207C1655.46 148.068 1656.67 149.542 1658.36 150.75C1660.05 151.838 1661.94 152.418 1663.99 152.418V157.009C1661.36 157.009 1658.96 156.357 1656.74 155.076C1654.61 153.861 1652.81 152.133 1651.52 150.049L1647.39 156.574L1657.17 162.664V176.343H1657.8C1658.89 176.343 1659.88 176.125 1660.85 175.594C1661.81 175.062 1662.61 174.458 1663.24 173.709C1663.6 173.153 1664.04 172.911 1664.52 172.911C1665 172.911 1665.44 173.104 1665.8 173.443ZM1652.7 165.854L1644.7 160.852L1647 168.44L1640.33 176.343H1652.7V165.854ZM1654.25 131.417C1651.59 131.417 1649.42 133.592 1649.42 136.25C1649.42 138.909 1651.59 141.084 1654.25 141.084C1656.91 141.084 1659.08 138.933 1659.08 136.25C1659.08 133.568 1656.93 131.417 1654.25 131.417ZM1637.33 180.959C1636.34 180.959 1635.52 181.78 1635.52 182.771C1635.52 183.762 1636.34 184.584 1637.33 184.584C1638.32 184.584 1639.15 183.762 1639.15 182.771C1639.15 181.78 1638.32 180.959 1637.33 180.959ZM1656.67 180.959C1655.68 180.959 1654.85 181.78 1654.85 182.771C1654.85 183.762 1655.68 184.584 1656.67 184.584C1657.66 184.584 1658.48 183.762 1658.48 182.771C1658.48 181.78 1657.66 180.959 1656.67 180.959Z" fill="#202131"/>
<path d="M1262.14 127C1259.85 127 1258.01 128.866 1258.01 131.177C1258.01 133.489 1259.85 135.354 1262.14 135.354C1264.42 135.354 1266.27 133.489 1266.27 131.177C1266.27 128.866 1264.42 127 1262.14 127ZM1252.5 170.861C1251.04 170.861 1249.64 171.448 1248.61 172.492C1247.58 173.537 1247 174.953 1247 176.43C1247 179.522 1249.45 182 1252.5 182C1254.54 182 1256.33 180.886 1257.27 179.215H1283.52C1284 180.062 1284.7 180.765 1285.54 181.254C1286.37 181.743 1287.32 182 1288.29 182C1289.26 182 1290.21 181.742 1291.04 181.253C1291.88 180.763 1292.57 180.06 1293.06 179.213C1293.54 178.366 1293.79 177.405 1293.79 176.427C1293.79 175.449 1293.54 174.488 1293.05 173.642C1292.57 172.795 1291.87 172.093 1291.04 171.604C1290.2 171.116 1289.25 170.86 1288.28 170.861C1286.25 170.861 1284.46 171.975 1283.52 173.646H1271.77V158.329L1280.77 152.008L1288.92 159.722C1290.04 160.752 1291.78 160.668 1292.82 159.554L1301.27 150.392C1302.29 149.251 1302.24 147.496 1301.13 146.438C1300.01 145.408 1298.27 145.463 1297.25 146.577L1290.68 153.706L1271.05 135.215L1270.94 135.159C1270.67 134.923 1270.35 134.745 1270 134.634C1269.66 134.523 1269.3 134.482 1268.94 134.513C1268.57 134.544 1268.22 134.646 1267.9 134.815C1267.58 134.983 1267.3 135.214 1267.06 135.494L1260.84 143.013H1252.5C1250.99 143.013 1249.75 144.266 1249.75 145.797C1249.75 147.329 1250.99 148.582 1252.5 148.582H1262.14C1263.1 148.582 1263.93 148.081 1264.42 147.357L1268.55 142.372L1275.51 148.944L1267.45 154.653C1266.73 155.154 1266.27 155.99 1266.27 156.937V173.646H1264.59C1263.4 168.438 1259.03 164.456 1253.66 163.899L1255.78 151.367H1251.65L1248.68 169.023C1249.73 168.469 1250.88 168.15 1252.06 168.087C1253.24 168.024 1254.43 168.218 1255.53 168.656C1256.63 169.094 1257.62 169.766 1258.45 170.627C1259.27 171.488 1259.9 172.517 1260.29 173.646H1257.27C1256.33 171.975 1254.54 170.861 1252.5 170.861Z" fill="#202131"/>
<path d="M1920 22.8565C1904.67 25.4252 1890.39 32.3561 1878.87 42.8264C1879.34 41.7216 1879.43 40.493 1879.14 39.3276C1878.85 38.1622 1878.19 37.1238 1877.26 36.3702C1878.41 34.726 1879.08 32.7993 1879.22 30.7976C1879.35 28.796 1878.94 26.7954 1878.03 25.0114C1876.95 22.7745 1875.11 20.9933 1872.85 19.9834L1872.82 20.0168C1870.78 19.0679 1868.49 18.7736 1866.28 19.1742C1864.06 19.5747 1862.03 20.6505 1860.44 22.2552L1839.64 43.1354C1838.04 44.7273 1836.96 46.7771 1836.57 49.0047C1836.17 51.2322 1836.47 53.5287 1837.42 55.5801L1837.4 55.5884C1837.9 56.6742 1838.47 57.6764 1839.38 58.5952C1840.16 59.3719 1841.1 60.0818 1842.04 60.5913C1843.9 61.6471 1846.02 62.1332 1848.15 61.9891C1850.28 61.8451 1852.32 61.0774 1854.02 59.7812C1854.74 60.6684 1855.73 61.3062 1856.83 61.6056C1857.94 61.9051 1859.11 61.8512 1860.18 61.4516L1842.23 79.4504C1842.7 78.3444 1842.8 77.1128 1842.51 75.944C1842.23 74.7751 1841.56 73.7332 1840.63 72.9775C1843.18 69.3026 1843.28 64.4583 1840.9 60.75C1839.79 58.9232 1838.15 57.4789 1836.19 56.6074L1836.18 56.6241C1834.14 55.677 1831.86 55.3838 1829.64 55.7843C1827.43 56.1848 1825.4 57.2596 1823.81 58.8624L1803.01 79.7427C1799.63 83.1337 1798.89 88.0948 1800.78 92.179L1800.75 92.2124C1801.08 92.939 1801.44 93.6322 1801.93 94.2754C1801.54 93.9875 1801.14 93.7332 1800.71 93.5153C1798.62 92.3104 1796.19 91.834 1793.8 92.1603C1791.4 92.4865 1789.19 93.5972 1787.49 95.3194L1766.69 116.2C1763.19 119.708 1762.53 124.911 1764.68 129.07C1765.14 130.031 1765.68 130.924 1766.51 131.751C1767.43 132.67 1768.58 133.505 1769.67 134.006L1769.69 133.973C1773.34 135.752 1777.73 135.376 1781.07 132.845C1781.82 133.767 1782.86 134.417 1784.01 134.697C1785.17 134.977 1786.39 134.873 1787.48 134.399L1781.12 140.788C1756.15 165.845 1718.37 172.025 1687 156.908V235H1695.32V177.796C1700.82 179.417 1706.37 180.547 1711.96 181.187V235H1720.29V181.772C1721.06 181.789 1721.84 181.797 1722.62 181.797C1727.41 181.797 1732.18 181.449 1736.93 180.753V235H1745.25V179.166C1750.95 177.822 1756.52 175.977 1761.89 173.654V235H1770.21V169.57C1776.13 166.319 1781.71 162.474 1786.86 158.094V235H1795.18V150.226L1811.82 133.522V235H1820.14V125.17L1836.79 108.466V235H1845.11V100.113L1861.75 83.4093V235H1870.07V75.0572L1886.71 58.353V235H1895.04V51.0866C1900.13 47.3402 1905.73 44.3501 1911.68 42.2083V235H1920V22.8565ZM1861.83 52.0889L1869.65 44.2463C1870.38 45.1037 1871.35 45.7156 1872.44 45.9994C1873.53 46.2832 1874.68 46.2251 1875.73 45.8332L1875.65 45.9167L1863.4 58.2026C1863.79 57.1465 1863.85 55.995 1863.57 54.9033C1863.29 53.8116 1862.68 52.8239 1861.83 52.0889ZM1805.18 98.2677L1805.19 98.251C1804.87 97.5688 1804.48 96.9244 1804.02 96.33C1804.62 96.7893 1805.27 97.1819 1805.89 97.4742V97.4659C1809.57 99.3117 1814.02 98.9609 1817.39 96.4052C1818.15 97.3251 1819.18 97.9739 1820.33 98.254C1821.49 98.5341 1822.7 98.4305 1823.8 97.9586L1805.9 115.916C1806.38 114.809 1806.48 113.575 1806.19 112.405C1805.91 111.234 1805.24 110.191 1804.31 109.434C1805.43 107.821 1806.11 105.935 1806.26 103.971C1806.42 102.007 1806.04 100.038 1805.18 98.2677ZM1837.19 82.7912C1837.96 82.7856 1838.69 82.6353 1839.37 82.3402L1826.67 95.0772C1827.13 93.9982 1827.24 92.7987 1826.97 91.6538C1826.71 90.5089 1826.09 89.4785 1825.2 88.7129L1833.02 80.8619C1834.02 82.0479 1835.52 82.7912 1837.19 82.7912ZM1800.86 119.231C1801.64 119.231 1802.37 119.081 1803.04 118.78L1790.34 131.526C1790.81 130.447 1790.92 129.247 1790.65 128.102C1790.39 126.958 1789.77 125.927 1788.88 125.161L1796.7 117.31C1797.7 118.488 1799.2 119.231 1800.86 119.231Z" fill="#202131"/>
<path d="M434.222 166.447L425.018 159.044V154.002C425.067 152.991 424.713 152.002 424.034 151.252C423.355 150.502 422.407 150.052 421.396 150H398.586C397.583 150.062 396.644 150.517 395.974 151.266C395.304 152.015 394.955 152.998 395.005 154.002V174.011C394.986 174.805 395.204 175.588 395.632 176.257C396.06 176.927 396.677 177.455 397.406 177.773C397.037 178.674 396.894 179.652 396.987 180.621C397.081 181.59 397.409 182.522 397.943 183.337C398.478 184.151 399.202 184.823 400.054 185.295C400.906 185.767 401.86 186.024 402.833 186.045C403.807 186.066 404.771 185.85 405.643 185.415C406.514 184.98 407.267 184.339 407.835 183.549C408.404 182.758 408.772 181.841 408.907 180.876C409.042 179.912 408.94 178.929 408.611 178.013H421.336C421.007 178.919 420.901 179.892 421.028 180.848C421.155 181.804 421.51 182.716 422.063 183.506C422.617 184.296 423.353 184.941 424.208 185.386C425.064 185.831 426.014 186.063 426.979 186.063C427.943 186.063 428.894 185.831 429.749 185.386C430.605 184.941 431.341 184.296 431.894 183.506C432.448 182.716 432.803 181.804 432.93 180.848C433.056 179.892 432.95 178.919 432.621 178.013H433.022C433.552 178.013 434.061 177.802 434.436 177.427C434.812 177.051 435.022 176.542 435.022 176.012V168.008C435.016 167.704 434.941 167.406 434.802 167.135C434.664 166.865 434.465 166.63 434.222 166.447ZM431.021 168.969V174.011H425.018V164.166L431.021 168.969ZM405.009 180.014C405.009 180.409 404.892 180.796 404.672 181.125C404.452 181.454 404.139 181.711 403.774 181.862C403.408 182.014 403.006 182.053 402.618 181.976C402.23 181.899 401.873 181.708 401.593 181.428C401.313 181.149 401.123 180.792 401.046 180.404C400.969 180.016 401.008 179.613 401.16 179.248C401.311 178.882 401.567 178.57 401.897 178.35C402.226 178.13 402.612 178.013 403.008 178.013C403.539 178.013 404.048 178.223 404.423 178.599C404.798 178.974 405.009 179.483 405.009 180.014ZM429.02 180.014C429.02 180.409 428.902 180.796 428.683 181.125C428.463 181.454 428.15 181.711 427.785 181.862C427.419 182.014 427.017 182.053 426.628 181.976C426.24 181.899 425.884 181.708 425.604 181.428C425.324 181.149 425.134 180.792 425.056 180.404C424.979 180.016 425.019 179.613 425.17 179.248C425.322 178.882 425.578 178.57 425.907 178.35C426.236 178.13 426.623 178.013 427.019 178.013C427.55 178.013 428.058 178.223 428.434 178.599C428.809 178.974 429.02 179.483 429.02 180.014Z" fill="#202131"/>
<defs>
<clipPath id="clip0_80_81">
<rect width="187" height="187" fill="white" transform="translate(573)"/>
</clipPath>
<clipPath id="clip1_80_81">
<rect width="151" height="151" fill="white" transform="translate(770 44)"/>
</clipPath>
</defs>
</svg>
