<svg width="437" height="38" viewBox="0 0 437 38" fill="none" xmlns="http://www.w3.org/2000/svg">
<path d="M0 18.4688C0 15.8906 0.484375 13.4844 1.45312 11.25C2.42188 9 3.83594 7.04688 5.69531 5.39062C7.55469 3.73437 9.83594 2.42969 12.5391 1.47656C15.2578 0.523437 18.3672 0.046875 21.8672 0.046875C23.1328 0.046875 24.3984 0.117188 25.6641 0.257812C26.9453 0.382812 28.2031 0.585938 29.4375 0.867188C30.6875 1.14844 31.8984 1.50781 33.0703 1.94531C34.2578 2.36719 35.3828 2.875 36.4453 3.46875L33.0234 9.09375C32.3828 8.71875 31.6562 8.38281 30.8438 8.08594C30.0312 7.77344 29.1562 7.51562 28.2188 7.3125C27.2969 7.09375 26.3359 6.92969 25.3359 6.82031C24.3516 6.71094 23.3594 6.65625 22.3594 6.65625C20.0469 6.65625 17.9844 6.95312 16.1719 7.54688C14.3594 8.125 12.8281 8.94531 11.5781 10.0078C10.3281 11.0547 9.375 12.3125 8.71875 13.7812C8.0625 15.25 7.73438 16.8594 7.73438 18.6094C7.73438 20.4219 8.07812 22.0859 8.76562 23.6016C9.45312 25.1172 10.4297 26.4219 11.6953 27.5156C12.9609 28.6094 14.4922 29.4688 16.2891 30.0938C18.0859 30.7031 20.0938 31.0078 22.3125 31.0078C24.0781 31.0078 25.6953 30.8125 27.1641 30.4219C28.6328 30.0156 29.9141 29.4453 31.0078 28.7109C32.1016 27.9766 32.9922 27.0938 33.6797 26.0625C34.3672 25.0156 34.8203 23.8438 35.0391 22.5469H22.2422V16.4297H41.7188V16.4531L41.7422 16.4297C42.1328 18.3047 42.25 20.1328 42.0938 21.9141C41.9531 23.6797 41.5469 25.3516 40.875 26.9297C40.2188 28.4922 39.3125 29.9297 38.1562 31.2422C37 32.5547 35.6172 33.6875 34.0078 34.6406C32.3984 35.5781 30.5703 36.3125 28.5234 36.8438C26.4766 37.3594 24.2344 37.6172 21.7969 37.6172C18.3906 37.6172 15.3359 37.1172 12.6328 36.1172C9.94531 35.1172 7.66406 33.75 5.78906 32.0156C3.91406 30.2812 2.47656 28.25 1.47656 25.9219C0.492188 23.5938 0 21.1094 0 18.4688ZM48.3516 18.7031C48.3516 15.9375 48.8594 13.4062 49.875 11.1094C50.8906 8.8125 52.3125 6.84375 54.1406 5.20312C55.9844 3.54687 58.1875 2.26563 60.75 1.35938C63.3281 0.453125 66.1797 0 69.3047 0C72.4141 0 75.2578 0.453125 77.8359 1.35938C80.4141 2.26563 82.6172 3.54687 84.4453 5.20312C86.2891 6.84375 87.7188 8.8125 88.7344 11.1094C89.75 13.4062 90.2578 15.9375 90.2578 18.7031C90.2578 21.4844 89.75 24.0391 88.7344 26.3672C87.7188 28.6797 86.2891 30.6719 84.4453 32.3438C82.6172 34.0156 80.4141 35.3203 77.8359 36.2578C75.2578 37.1797 72.4141 37.6406 69.3047 37.6406C66.1797 37.6406 63.3281 37.1797 60.75 36.2578C58.1875 35.3203 55.9844 34.0156 54.1406 32.3438C52.3125 30.6719 50.8906 28.6797 49.875 26.3672C48.8594 24.0391 48.3516 21.4844 48.3516 18.7031ZM55.7812 18.7031C55.7812 20.5938 56.1172 22.2969 56.7891 23.8125C57.4766 25.3281 58.4219 26.625 59.625 27.7031C60.8438 28.7656 62.2734 29.5859 63.9141 30.1641C65.5703 30.7422 67.3672 31.0312 69.3047 31.0312C71.2422 31.0312 73.0312 30.7422 74.6719 30.1641C76.3281 29.5859 77.7578 28.7656 78.9609 27.7031C80.1641 26.625 81.1094 25.3281 81.7969 23.8125C82.4844 22.2969 82.8281 20.5938 82.8281 18.7031C82.8281 16.8125 82.4844 15.1172 81.7969 13.6172C81.1094 12.1172 80.1641 10.8516 78.9609 9.82031C77.7578 8.77344 76.3281 7.97656 74.6719 7.42969C73.0312 6.88281 71.2422 6.60938 69.3047 6.60938C67.3672 6.60938 65.5703 6.88281 63.9141 7.42969C62.2734 7.97656 60.8438 8.77344 59.625 9.82031C58.4219 10.8516 57.4766 12.1172 56.7891 13.6172C56.1172 15.1172 55.7812 16.8125 55.7812 18.7031ZM99.6328 0.492188H107.062V23.7891H99.6328V0.492188ZM97.7812 33.0703C97.7812 32.4453 97.9062 31.8594 98.1562 31.3125C98.4219 30.75 98.7969 30.2656 99.2812 29.8594C99.7656 29.4375 100.352 29.1094 101.039 28.875C101.727 28.6406 102.5 28.5234 103.359 28.5234C104.219 28.5234 104.992 28.6406 105.68 28.875C106.367 29.1094 106.945 29.4375 107.414 29.8594C107.898 30.2656 108.266 30.75 108.516 31.3125C108.781 31.8594 108.914 32.4453 108.914 33.0703C108.914 33.6953 108.781 34.2891 108.516 34.8516C108.266 35.3984 107.898 35.875 107.414 36.2812C106.945 36.6875 106.367 37.0078 105.68 37.2422C104.992 37.4922 104.219 37.6172 103.359 37.6172C102.5 37.6172 101.727 37.4922 101.039 37.2422C100.352 37.0078 99.7656 36.6875 99.2812 36.2812C98.7969 35.875 98.4219 35.3984 98.1562 34.8516C97.9062 34.2891 97.7812 33.6953 97.7812 33.0703ZM134.555 0.492188H165.75V7.00781H141.984V14.3203H163.031V20.4375H141.984V30.6328H166.242V37.125H134.555V0.492188ZM184.898 18.5156L170.812 0.492188H179.906L189.633 13.1016L199.406 0.492188H208.359L194.016 18.4453L208.852 37.125H199.734L189.305 23.9531L178.641 37.125H169.664L184.898 18.5156ZM214.43 0.492188H233.742C236.555 0.492188 238.992 0.796875 241.055 1.40625C243.117 2.01562 244.828 2.89844 246.188 4.05469C247.547 5.19531 248.555 6.59375 249.211 8.25C249.883 9.90625 250.219 11.7734 250.219 13.8516C250.219 15.8047 249.891 17.6094 249.234 19.2656C248.578 20.9219 247.57 22.3594 246.211 23.5781C244.867 24.7812 243.164 25.7266 241.102 26.4141C239.039 27.0859 236.602 27.4219 233.789 27.4219L221.859 27.3984V37.125H214.43V0.492188ZM233.93 20.9766C235.336 20.9766 236.562 20.8125 237.609 20.4844C238.672 20.1406 239.555 19.6641 240.258 19.0547C240.977 18.4297 241.508 17.6797 241.852 16.8047C242.211 15.9141 242.391 14.9297 242.391 13.8516C242.391 11.6797 241.68 9.99219 240.258 8.78906C238.852 7.57031 236.742 6.96094 233.93 6.96094H221.859V20.9766H233.93ZM258.352 0.492188H265.781V30.6094H287.086V37.125H258.352V0.492188ZM292.148 18.7031C292.148 15.9375 292.656 13.4062 293.672 11.1094C294.688 8.8125 296.109 6.84375 297.938 5.20312C299.781 3.54687 301.984 2.26563 304.547 1.35938C307.125 0.453125 309.977 0 313.102 0C316.211 0 319.055 0.453125 321.633 1.35938C324.211 2.26563 326.414 3.54687 328.242 5.20312C330.086 6.84375 331.516 8.8125 332.531 11.1094C333.547 13.4062 334.055 15.9375 334.055 18.7031C334.055 21.4844 333.547 24.0391 332.531 26.3672C331.516 28.6797 330.086 30.6719 328.242 32.3438C326.414 34.0156 324.211 35.3203 321.633 36.2578C319.055 37.1797 316.211 37.6406 313.102 37.6406C309.977 37.6406 307.125 37.1797 304.547 36.2578C301.984 35.3203 299.781 34.0156 297.938 32.3438C296.109 30.6719 294.688 28.6797 293.672 26.3672C292.656 24.0391 292.148 21.4844 292.148 18.7031ZM299.578 18.7031C299.578 20.5938 299.914 22.2969 300.586 23.8125C301.273 25.3281 302.219 26.625 303.422 27.7031C304.641 28.7656 306.07 29.5859 307.711 30.1641C309.367 30.7422 311.164 31.0312 313.102 31.0312C315.039 31.0312 316.828 30.7422 318.469 30.1641C320.125 29.5859 321.555 28.7656 322.758 27.7031C323.961 26.625 324.906 25.3281 325.594 23.8125C326.281 22.2969 326.625 20.5938 326.625 18.7031C326.625 16.8125 326.281 15.1172 325.594 13.6172C324.906 12.1172 323.961 10.8516 322.758 9.82031C321.555 8.77344 320.125 7.97656 318.469 7.42969C316.828 6.88281 315.039 6.60938 313.102 6.60938C311.164 6.60938 309.367 6.88281 307.711 7.42969C306.07 7.97656 304.641 8.77344 303.422 9.82031C302.219 10.8516 301.273 12.1172 300.586 13.6172C299.914 15.1172 299.578 16.8125 299.578 18.7031ZM342.305 0.492188H360.938C363.75 0.492188 366.188 0.789063 368.25 1.38281C370.312 1.96094 372.023 2.80469 373.383 3.91406C374.742 5.02344 375.75 6.375 376.406 7.96875C377.078 9.5625 377.414 11.3672 377.414 13.3828C377.414 14.7422 377.25 16.0391 376.922 17.2734C376.594 18.4922 376.086 19.6172 375.398 20.6484C374.727 21.6797 373.875 22.6016 372.844 23.4141C371.812 24.2109 370.602 24.875 369.211 25.4062L377.18 37.125H368.086L361.195 26.7188H360.984L349.734 26.6953V37.125H342.305V0.492188ZM361.125 20.2734C362.531 20.2734 363.758 20.1094 364.805 19.7812C365.867 19.4531 366.75 18.9922 367.453 18.3984C368.172 17.8047 368.703 17.0859 369.047 16.2422C369.406 15.3828 369.586 14.4297 369.586 13.3828C369.586 11.3359 368.883 9.75781 367.477 8.64844C366.07 7.52344 363.953 6.96094 361.125 6.96094H349.734V20.2734H361.125ZM386.227 0.492188H417.422V7.00781H393.656V14.3203H414.703V20.4375H393.656V30.6328H417.914V37.125H386.227V0.492188ZM427.289 0.492188H434.719V23.7891H427.289V0.492188ZM425.438 33.0703C425.438 32.4453 425.562 31.8594 425.812 31.3125C426.078 30.75 426.453 30.2656 426.938 29.8594C427.422 29.4375 428.008 29.1094 428.695 28.875C429.383 28.6406 430.156 28.5234 431.016 28.5234C431.875 28.5234 432.648 28.6406 433.336 28.875C434.023 29.1094 434.602 29.4375 435.07 29.8594C435.555 30.2656 435.922 30.75 436.172 31.3125C436.438 31.8594 436.57 32.4453 436.57 33.0703C436.57 33.6953 436.438 34.2891 436.172 34.8516C435.922 35.3984 435.555 35.875 435.07 36.2812C434.602 36.6875 434.023 37.0078 433.336 37.2422C432.648 37.4922 431.875 37.6172 431.016 37.6172C430.156 37.6172 429.383 37.4922 428.695 37.2422C428.008 37.0078 427.422 36.6875 426.938 36.2812C426.453 35.875 426.078 35.3984 425.812 34.8516C425.562 34.2891 425.438 33.6953 425.438 33.0703Z" fill="#2C2E43"/>
</svg>
