<svg width="32768" height="1104" viewBox="0 0 32768 1104" fill="none" xmlns="http://www.w3.org/2000/svg">
<path d="M32768 1103.81C31935 1103.24 30942.6 906.587 30325.1 586.177C29778.2 895.558 28955.9 1103.81 28035.4 1103.81C27197.4 1103.81 26197.3 905.066 25579.6 581.328C25032.7 893.38 24206.7 1103.81 23281.4 1103.81C22498.1 1103.81 21573.2 930.172 20951.3 643.121C20406.9 920.841 19630.4 1103.81 18767.6 1103.81C18002.7 1103.81 17102.6 938.208 16481.7 663.097C15939.6 929.582 15179.9 1103.81 14337.9 1103.81C13550 1103.81 12618.6 928.088 11996.7 637.957C11451.9 918.571 10671.1 1103.81 9802.95 1103.81C8943.06 1103.81 7912.38 894.525 7299.47 555.65C6753.38 881.782 5907.68 1103.81 4957.21 1103.81C4070.62 1103.81 3002.47 881.328 2397.86 523.714C1854.33 867.201 984.788 1103.81 3.60945 1103.81C2.40664 1103.81 1.20348 1103.81 0 1103.81V0H32768V1103.81Z" fill="#2C2E43"/>
</svg>
